<svg width="185" height="139" viewBox="0 0 185 139" fill="none" xmlns="http://www.w3.org/2000/svg">
<path d="M95.2323 13.8095C91.5511 7.62286 96.6703 1.93333 98.1082 0C72.8 3.59048 76.5387 27.8952 85.7417 37.2857L86.8921 36.4571C81.1402 17.4552 89.8639 13.3492 95.2323 13.8095Z" fill="#EF7F1B"/>
<path d="M117.159 26.8814C119.566 20.1944 127.066 20.2434 129.427 20.0402C110.973 3.91751 94.8498 22.3723 93.4427 35.1575L94.7866 35.4597C105.633 18.9696 114.172 22.6706 117.159 26.8814Z" fill="#FEED01"/>
<path d="M119.879 51.7773C126.627 49.5456 131.216 55.4776 132.833 57.2103C134.133 32.7393 109.662 31.4393 98.7326 38.2211L99.3239 39.4651C118.993 37.8255 121.35 46.8283 119.879 51.7773Z" fill="#019645"/>
<path d="M102.346 69.6256C108.298 73.5104 106.52 80.7968 106.173 83.141C126.118 68.9023 111.879 48.9579 99.763 44.64L99.159 45.8779C112.703 60.2355 107.132 67.69 102.346 69.6256Z" fill="#A2D9F8"/>
<path d="M76.8532 67.6688C77.2819 74.7631 70.3722 77.6795 68.2832 78.7984C91.6047 86.3237 99.1299 63.0023 95.3742 50.7004L94.0202 50.9534C90.5663 70.3866 81.2604 70.3578 76.8532 67.6688Z" fill="#008DD4"/>
<path d="M63.0001 46.8406C58.0397 51.9304 51.2334 48.7802 49.0001 47.9874C59.1221 70.3048 81.4395 60.1829 88.0145 49.128L86.9164 48.2964C70.2149 58.8148 63.9756 51.9104 63.0001 46.8406Z" fill="#393187"/>
<path d="M71.1238 22.3014C64.0702 21.4295 62.4624 14.1039 61.7431 11.8459C50.0921 33.4045 71.6508 45.0555 84.4312 43.6055L84.4293 42.2281C65.9515 35.2892 67.6763 26.1445 71.1238 22.3014Z" fill="#DA252A"/>
<path d="M100.87 42.8095C100.87 47.3856 97.1606 51.0952 92.5845 51.0952C88.0085 51.0952 84.2988 47.3856 84.2988 42.8095C84.2988 38.2334 88.0085 34.5238 92.5845 34.5238C97.1606 34.5238 100.87 38.2334 100.87 42.8095Z" fill="black"/>
<path d="M103.157 120.964C101.988 121.967 100.401 123.136 98.3965 124.389V126.435C98.3965 128.189 99.524 129.149 101.069 129.149C102.656 129.149 103.783 128.189 103.783 126.435V124.806L107.166 123.929V126.56C107.166 130.402 104.41 132.74 100.944 132.74C97.5195 132.74 94.8052 130.402 94.8052 126.56V112.738C94.8052 108.896 97.5195 106.557 100.986 106.557C103.992 106.557 107.249 108.186 107.249 113.281C107.249 116.413 105.997 118.626 103.157 120.964ZM98.3965 112.905V120.797C99.6075 120.004 100.61 119.252 101.278 118.626C102.99 117.039 103.658 115.577 103.658 113.531C103.658 110.9 102.405 109.982 100.944 109.982C99.3569 109.982 98.3965 111.067 98.3965 112.905Z" fill="black"/>
<path d="M87.7056 99.2911L91.4222 98.3724V132.406H88.8749L88.2485 130.819C86.954 132.03 85.2836 132.74 83.6132 132.74C80.8154 132.74 78.3516 130.736 78.3516 126.56V112.738C78.3516 108.562 80.8154 106.557 83.6132 106.557C85.0748 106.557 86.4946 107.1 87.7056 108.019V99.2911ZM82.0681 113.531V125.767C82.0681 127.854 82.8198 129.065 84.6572 129.065C85.7847 129.065 86.7869 128.564 87.7056 127.604V111.694C86.7869 110.733 85.7847 110.232 84.6572 110.232C82.8198 110.232 82.0681 111.443 82.0681 113.531Z" fill="black"/>
<path d="M65.4034 111.944L63.3572 109.397C64.5682 107.601 66.865 106.557 69.287 106.557C73.3377 106.557 75.3421 109.439 75.3421 113.489V132.406H73.0036L72.3355 130.987C71.0827 132.031 69.4123 132.74 67.6584 132.74C64.8606 132.74 62.2715 130.987 62.2715 126.142C62.2715 122.384 63.8166 120.046 67.5332 117.248C68.7442 116.371 70.2475 115.369 71.8344 114.366V113.573C71.8344 111.443 70.8321 109.982 68.7859 109.982C67.3661 109.982 66.1133 110.733 65.4034 111.944ZM68.7442 129.233C69.9134 129.233 70.9157 128.69 71.8344 127.771V117.958C70.8321 118.584 70.0805 119.085 69.3706 119.628C66.7397 121.674 65.9881 123.47 65.9881 125.6C65.9881 128.189 67.0738 129.233 68.7442 129.233Z" fill="black"/>
<path d="M47.9205 106.891H60.0306V109.48L51.6788 129.274H60.0306V132.406H47.7534V129.358L56.1053 110.023H47.9205V106.891Z" fill="black"/>
<path d="M31.7046 99.2911L35.4212 98.3724V107.894C36.5904 107.017 38.0102 106.557 39.4301 106.557C42.3532 106.557 44.7752 108.562 44.7752 112.738V132.406H41.0587V113.531C41.0587 111.443 40.2652 110.232 38.3861 110.232C37.3003 110.232 36.3399 110.691 35.4212 111.568V132.406H31.7046V99.2911Z" fill="black"/>
<path d="M24.1883 120.964C23.019 121.967 21.4322 123.136 19.4277 124.389V126.435C19.4277 128.189 20.5552 129.149 22.1003 129.149C23.6872 129.149 24.8147 128.189 24.8147 126.435V124.806L28.1972 123.929V126.56C28.1972 130.402 25.4411 132.74 21.975 132.74C18.5508 132.74 15.8364 130.402 15.8364 126.56V112.738C15.8364 108.896 18.5508 106.557 22.0168 106.557C25.0235 106.557 28.2807 108.186 28.2807 113.281C28.2807 116.413 27.0279 118.626 24.1883 120.964ZM19.4277 112.905V120.797C20.6387 120.004 21.641 119.252 22.3091 118.626C24.0212 117.039 24.6894 115.577 24.6894 113.531C24.6894 110.9 23.4366 109.982 21.975 109.982C20.3882 109.982 19.4277 111.067 19.4277 112.905Z" fill="black"/>
<path d="M6.68148 106.557C10.9409 106.557 12.8201 109.063 12.8201 112.153V113.823H9.4376V112.654C9.4376 110.984 8.47713 110.065 6.63972 110.065C4.7188 110.065 3.80009 111.026 3.80009 112.529C3.80009 113.406 4.09241 114.283 5.34519 115.619C6.89028 117.331 9.68815 119.461 11.1497 121.298C12.5278 123.011 12.9454 124.764 12.9454 126.435C12.9454 130.151 10.9827 132.74 6.51445 132.74C2.4638 132.74 0 130.527 0 126.811V123.929L3.3825 124.806V126.518C3.3825 128.147 4.42648 129.191 6.51445 129.191C8.51889 129.191 9.47935 128.23 9.47935 126.31C9.47935 125.14 9.14528 124.389 8.01778 123.094C6.13861 120.923 3.67482 119.127 2.21324 117.415C0.709907 115.619 0.208796 113.949 0.208796 112.32C0.208796 108.604 2.75611 106.557 6.68148 106.557Z" fill="black"/>
<path d="M7.6497 134.933C7.6497 135.594 7.11382 136.13 6.45278 136.13C5.79174 136.13 5.25586 135.594 5.25586 134.933C5.25586 134.272 5.79174 133.736 6.45278 133.736C7.11382 133.736 7.6497 134.272 7.6497 134.933Z" fill="black"/>
<path d="M5.25586 138.79V134.933H7.6497C7.7561 136.742 6.09814 138.302 5.25586 138.79Z" fill="black"/>
<path d="M108.123 105.288C108.368 105.288 108.608 105.351 108.842 105.478C109.076 105.603 109.258 105.784 109.389 106.019C109.519 106.253 109.584 106.497 109.584 106.752C109.584 107.004 109.52 107.246 109.391 107.479C109.263 107.711 109.082 107.892 108.85 108.022C108.618 108.15 108.376 108.214 108.123 108.214C107.869 108.214 107.626 108.15 107.394 108.022C107.162 107.892 106.982 107.711 106.853 107.479C106.723 107.246 106.659 107.004 106.659 106.752C106.659 106.497 106.724 106.253 106.855 106.019C106.986 105.784 107.169 105.603 107.403 105.478C107.637 105.351 107.877 105.288 108.123 105.288ZM108.123 105.53C107.917 105.53 107.717 105.583 107.522 105.689C107.328 105.794 107.176 105.944 107.066 106.141C106.956 106.336 106.901 106.54 106.901 106.752C106.901 106.962 106.955 107.165 107.062 107.359C107.171 107.551 107.322 107.702 107.516 107.81C107.71 107.918 107.912 107.971 108.123 107.971C108.333 107.971 108.536 107.918 108.729 107.81C108.923 107.702 109.074 107.551 109.181 107.359C109.288 107.165 109.342 106.962 109.342 106.752C109.342 106.54 109.287 106.336 109.177 106.141C109.069 105.944 108.917 105.794 108.722 105.689C108.527 105.583 108.327 105.53 108.123 105.53ZM107.481 107.56V105.986H108.022C108.207 105.986 108.34 106.001 108.423 106.03C108.506 106.059 108.572 106.109 108.621 106.182C108.67 106.254 108.695 106.331 108.695 106.412C108.695 106.527 108.653 106.628 108.57 106.713C108.489 106.798 108.38 106.846 108.245 106.856C108.3 106.88 108.345 106.907 108.379 106.94C108.442 107.002 108.519 107.106 108.611 107.252L108.803 107.56H108.493L108.353 107.312C108.243 107.117 108.155 106.995 108.088 106.946C108.041 106.909 107.973 106.891 107.884 106.891H107.735V107.56H107.481ZM107.735 106.674H108.043C108.19 106.674 108.291 106.652 108.344 106.608C108.398 106.564 108.425 106.506 108.425 106.434C108.425 106.387 108.412 106.346 108.386 106.31C108.36 106.272 108.324 106.244 108.278 106.226C108.232 106.208 108.148 106.199 108.024 106.199H107.735V106.674Z" fill="black"/>
<path d="M180.371 120.873L180.371 120.872L180.368 120.875C179.186 121.889 177.577 123.075 175.54 124.348L175.446 124.406V124.517V126.603C175.446 127.541 175.749 128.288 176.279 128.8C176.807 129.311 177.542 129.569 178.37 129.569C179.219 129.569 179.964 129.312 180.498 128.801C181.034 128.288 181.337 127.541 181.337 126.603V125.098L184.385 124.307V126.73C184.385 128.638 183.702 130.159 182.601 131.204C181.498 132.25 179.964 132.83 178.243 132.83C176.543 132.83 175.031 132.25 173.944 131.204C172.859 130.16 172.186 128.639 172.186 126.73V112.642C172.186 110.733 172.859 109.212 173.949 108.168C175.041 107.123 176.564 106.542 178.285 106.542C179.785 106.542 181.329 106.949 182.495 107.972C183.656 108.991 184.47 110.644 184.47 113.195C184.47 114.763 184.157 116.091 183.494 117.319C182.829 118.55 181.807 119.691 180.371 120.873ZM175.446 120.857V121.227L175.756 121.024C176.994 120.213 178.027 119.439 178.72 118.79C179.605 117.969 180.23 117.172 180.632 116.307C181.035 115.44 181.209 114.516 181.209 113.451C181.209 112.081 180.883 111.122 180.334 110.503C179.782 109.881 179.03 109.633 178.243 109.633C177.386 109.633 176.678 109.928 176.187 110.488C175.7 111.046 175.446 111.843 175.446 112.812V120.857Z" fill="#C6C6C6" stroke="white" stroke-width="0.4"/>
<path d="M169.683 112.642V132.489H166.295V113.451C166.295 112.367 166.09 111.474 165.61 110.849C165.122 110.214 164.375 109.888 163.371 109.888C162.2 109.888 161.174 110.386 160.211 111.305L160.149 111.364V111.45V132.489H156.761V106.883H159.022L159.567 108.247L159.674 108.514L159.887 108.321C161.17 107.162 162.825 106.542 164.435 106.542C165.878 106.542 167.185 107.036 168.131 108.034C169.078 109.031 169.683 110.552 169.683 112.642Z" fill="#C6C6C6" stroke="white" stroke-width="0.4"/>
<path d="M150.571 106.883H153.959V132.489H150.571V106.883ZM152.202 98.5831C152.921 98.5831 153.427 98.821 153.755 99.187C154.087 99.5565 154.257 100.079 154.257 100.681C154.257 101.307 154.086 101.852 153.753 102.237C153.423 102.618 152.918 102.865 152.202 102.865C151.531 102.865 151.047 102.621 150.727 102.239C150.402 101.853 150.231 101.307 150.231 100.681C150.231 100.079 150.401 99.5551 150.724 99.1849C151.044 98.8185 151.529 98.5831 152.202 98.5831Z" fill="#C6C6C6" stroke="white" stroke-width="0.4"/>
<path d="M144.339 132.489V99.093L147.727 98.2555V132.489H144.339Z" fill="#C6C6C6" stroke="white" stroke-width="0.4"/>
<path d="M141.836 112.642V132.489H138.448V113.451C138.448 112.367 138.243 111.474 137.762 110.849C137.274 110.214 136.528 109.888 135.524 109.888C134.353 109.888 133.327 110.386 132.363 111.305L132.302 111.364V111.45V132.489H128.913V106.883H131.174L131.72 108.247L131.827 108.514L132.04 108.321C133.323 107.162 134.978 106.542 136.588 106.542C138.031 106.542 139.338 107.036 140.284 108.034C141.231 109.031 141.836 110.552 141.836 112.642Z" fill="#C6C6C6" stroke="white" stroke-width="0.4"/>
<path d="M126.41 112.642V126.73C126.41 128.636 125.707 130.157 124.58 131.202C123.451 132.249 121.884 132.83 120.141 132.83C118.375 132.83 116.809 132.249 115.685 131.202C114.564 130.157 113.871 128.637 113.871 126.73V112.642C113.871 110.735 114.564 109.215 115.685 108.17C116.809 107.124 118.375 106.542 120.141 106.542C121.884 106.542 123.451 107.123 124.58 108.17C125.707 109.216 126.41 110.736 126.41 112.642ZM117.131 112.855V126.518C117.131 127.458 117.446 128.206 117.993 128.717C118.537 129.227 119.292 129.484 120.141 129.484C120.989 129.484 121.734 129.227 122.269 128.716C122.804 128.203 123.107 127.456 123.107 126.518V112.855C123.107 111.916 122.804 111.169 122.269 110.656C121.734 110.145 120.989 109.888 120.141 109.888C119.292 109.888 118.537 110.145 117.993 110.655C117.446 111.167 117.131 111.914 117.131 112.855Z" fill="#C6C6C6" stroke="white" stroke-width="0.4"/>
</svg>